<?xml version="1.0" encoding="utf-8"?>
<!-- Generator: Adobe Illustrator 25.1.0, SVG Export Plug-In . SVG Version: 6.00 Build 0)  -->
<svg version="1.1" id="Layer_1" xmlns="http://www.w3.org/2000/svg" xmlns:xlink="http://www.w3.org/1999/xlink" x="0px" y="0px"
	 viewBox="0 0 864 864" style="enable-background:new 0 0 864 864;" xml:space="preserve">
<style type="text/css">
	.st0{fill:#010101;}
</style>
<path class="st0" d="M301,455.9l7.6,20.5l-30.3-25.6h12.8l-22-30.7h9.2l-12.8-24.7l22.5-2.6l15.5,38l-6.1,1.5l10.3,22.3L301,455.9z"
	/>
<path class="st0" d="M376.5,455.6l-16.2-3l16.2,25.9l-43.5-43l14.8-1.4l-23.9-34.5h19.6L376.5,455.6z"/>
<path class="st0" d="M424.7,427.8l33.4-7.3l-66.9,60.1l38.9-45l-34,7.9l54.1-52.8L424.7,427.8z"/>
<path class="st0" d="M535.7,385.5l-23.9,33.3l20.4-5.3l-36.1,47.8l-4.7-10.4l-22.3,20.7l25.3-34.7l3.4,12.1l16.3-22.4l-15,4.2
	l23-37.8L535.7,385.5z"/>
<path class="st0" d="M598.5,384.5l-22.4,30.8l17.1-6.1l-24.5,29.3l19.5-6.2l-44.8,42.9l20.8-27.1h-14.4l20.8-23.9l-20.8,6.4
	C549.8,430.5,594.5,388.5,598.5,384.5z"/>
</svg>
