<?xml version="1.0" encoding="UTF-8" standalone="no"?>
<svg
   version="1.0"
   width="1181pt"
   height="1500pt"
   viewBox="0 0 1181 1500"
   preserveAspectRatio="xMidYMid meet"
   id="svg842"
   sodipodi:docname="bolt2.svg"
   inkscape:version="1.1 (c68e22c387, 2021-05-23)"
   xmlns:inkscape="http://www.inkscape.org/namespaces/inkscape"
   xmlns:sodipodi="http://sodipodi.sourceforge.net/DTD/sodipodi-0.dtd"
   xmlns="http://www.w3.org/2000/svg"
   xmlns:svg="http://www.w3.org/2000/svg">
  <defs
     id="defs846" />
  <sodipodi:namedview
     id="namedview844"
     pagecolor="#ffffff"
     bordercolor="#666666"
     borderopacity="1.0"
     inkscape:pageshadow="2"
     inkscape:pageopacity="0.0"
     inkscape:pagecheckerboard="0"
     inkscape:document-units="pt"
     showgrid="false"
     inkscape:zoom="0.47402344"
     inkscape:cx="488.37248"
     inkscape:cy="1022.1014"
     inkscape:window-width="1920"
     inkscape:window-height="1017"
     inkscape:window-x="-8"
     inkscape:window-y="-8"
     inkscape:window-maximized="1"
     inkscape:current-layer="svg842"
     height="1500pt" />
  <metadata
     id="metadata836">
Created by potrace 1.15, written by Peter Selinger 2001-2017
</metadata>
  <g
     transform="matrix(0.08190278,0,0,-0.10360255,106.27579,1486.7906)"
     fill="#000000"
     stroke="none"
     id="g840"
     style="fill:#ff6600;fill-opacity:1">
    <path
       d="m 10085,12745 c -863,-29 -1753,-59 -1977,-66 l -407,-13 -279,-280 C 7269,12231 6646,11599 6039,10980 5432,10361 4564,9477 4111,9015 3658,8553 3163,8050 3011,7898 c -151,-153 -273,-280 -270,-282 5,-5 321,-18 1154,-46 319,-11 702,-24 850,-30 149,-5 354,-12 458,-16 103,-4 187,-7 187,-8 0,-3 -1683,-1679 -2884,-2872 C 1220,3366 1169,3315 1201,3313 c 19,-1 315,-7 659,-12 344,-6 731,-14 861,-17 l 237,-6 L 1897,2106 C 1313,1462 651,730 424,480 67,86 -8,-3 21,7 c 3,1 1315,732 2915,1624 1600,892 3212,1790 3581,1996 370,206 670,379 667,384 -3,6 -131,7 -317,4 -592,-10 -2309,-27 -2313,-22 -3,3 1209,974 2693,2158 l 2698,2154 -1463,5 -1462,5 328,306 c 180,168 1256,1173 2392,2234 1136,1060 2067,1932 2068,1936 5,12 50,13 -1723,-46 z"
       id="path838"
       style="fill:#ff6600;fill-opacity:1" />
  </g>
</svg>
