<?xml version="1.0" encoding="UTF-8" standalone="no"?>
<!-- Generator: Adobe Illustrator 19.0.0, SVG Export Plug-In . SVG Version: 6.00 Build 0)  -->

<svg
   version="1.1"
   id="Capa_1"
   x="0px"
   y="0px"
   viewBox="0 0 512.195 512.195"
   style="enable-background:new 0 0 512.195 512.195;"
   xml:space="preserve"
   sodipodi:docname="colorful-circle.svg"
   inkscape:version="1.1 (c68e22c387, 2021-05-23)"
   xmlns:inkscape="http://www.inkscape.org/namespaces/inkscape"
   xmlns:sodipodi="http://sodipodi.sourceforge.net/DTD/sodipodi-0.dtd"
   xmlns="http://www.w3.org/2000/svg"
   xmlns:svg="http://www.w3.org/2000/svg"><defs
   id="defs1022" /><sodipodi:namedview
   id="namedview1020"
   pagecolor="#ffffff"
   bordercolor="#666666"
   borderopacity="1.0"
   inkscape:pageshadow="2"
   inkscape:pageopacity="0.0"
   inkscape:pagecheckerboard="0"
   showgrid="false"
   inkscape:zoom="1.148611"
   inkscape:cx="256.39664"
   inkscape:cy="255.52602"
   inkscape:window-width="1920"
   inkscape:window-height="1017"
   inkscape:window-x="-8"
   inkscape:window-y="-8"
   inkscape:window-maximized="1"
   inkscape:current-layer="Capa_1" />

<g
   id="g989">
</g>
<g
   id="g991">
</g>
<g
   id="g993">
</g>
<g
   id="g995">
</g>
<g
   id="g997">
</g>
<g
   id="g999">
</g>
<g
   id="g1001">
</g>
<g
   id="g1003">
</g>
<g
   id="g1005">
</g>
<g
   id="g1007">
</g>
<g
   id="g1009">
</g>
<g
   id="g1011">
</g>
<g
   id="g1013">
</g>
<g
   id="g1015">
</g>
<g
   id="g1017">
</g>
<g
   id="g12"
   transform="matrix(0.14014472,0,0,-0.14014472,-444.6261,816.67638)"
   style="fill:#000000"><path
     d="m 4409.1,5490.24 -68.84,173.62 c -228.81,-90.8 -434.46,-227.39 -605.59,-398.52 L 3866.7,5133.3 c 153.28,153.28 337.47,275.61 542.4,356.94"
     style="fill:#000000;fill-opacity:1;fill-rule:nonzero;stroke:none"
     id="path14" /><path
     d="m 3866.7,5133.3 -132.03,132.04 c -158.51,-158.51 -287.31,-346.66 -377.62,-555.36 l 171.44,-74.08 c 80.89,186.91 196.25,355.44 338.21,497.4"
     style="fill:#000000;fill-opacity:1;fill-rule:nonzero;stroke:none"
     id="path16" /><path
     d="m 3528.49,4635.9 -171.44,74.08 c -94.19,-217.68 -146.5,-457.7 -146.5,-709.98 h 186.72 c 0,225.95 46.85,440.93 131.22,635.9"
     style="fill:#000000;fill-opacity:1;fill-rule:nonzero;stroke:none"
     id="path18" /><path
     d="m 5000,5602.73 v 186.72 c -233,0 -455.59,-44.57 -659.74,-125.59 l 68.84,-173.62 c 182.85,72.57 382.21,112.49 590.9,112.49"
     style="fill:#000000;fill-opacity:1;fill-rule:nonzero;stroke:none"
     id="path20" /><path
     d="m 3397.27,4000 h -186.72 c 0,-233 44.57,-455.59 125.59,-659.74 l 173.62,68.84 c -72.57,182.85 -112.49,382.21 -112.49,590.9"
     style="fill:#000000;fill-opacity:1;fill-rule:nonzero;stroke:none"
     id="path22" /><path
     d="m 6490.24,4590.9 173.62,68.84 c -90.8,228.81 -227.39,434.46 -398.52,605.6 L 6133.3,5133.3 c 153.28,-153.28 275.61,-337.47 356.94,-542.4"
     style="fill:#000000;fill-opacity:1;fill-rule:nonzero;stroke:none"
     id="path24" /><path
     d="m 3509.76,3409.1 -173.62,-68.84 c 90.8,-228.81 227.39,-434.46 398.53,-605.6 l 132.03,132.04 c -153.28,153.28 -275.61,337.47 -356.94,542.4"
     style="fill:#000000;fill-opacity:1;fill-rule:nonzero;stroke:none"
     id="path26" /><path
     d="m 6602.73,4000 h 186.72 c 0,233 -44.57,455.59 -125.59,659.74 l -173.62,-68.84 c 72.57,-182.85 112.49,-382.21 112.49,-590.9"
     style="fill:#000000;fill-opacity:1;fill-rule:nonzero;stroke:none"
     id="path28" /><path
     d="m 6133.3,5133.3 132.04,132.04 c -158.51,158.5 -346.66,287.3 -555.36,377.61 l -74.08,-171.44 c 186.91,-80.89 355.44,-196.25 497.4,-338.21"
     style="fill:#000000;fill-opacity:1;fill-rule:nonzero;stroke:none"
     id="path30" /><path
     d="m 5635.9,5471.51 74.08,171.44 c -217.68,94.19 -457.7,146.5 -709.98,146.5 v -186.72 c 225.95,0 440.93,-46.85 635.9,-131.22"
     style="fill:#000000;fill-opacity:1;fill-rule:nonzero;stroke:none"
     id="path32" /><path
     d="m 3866.7,2866.7 -132.03,-132.04 c 158.5,-158.5 346.65,-287.3 555.35,-377.61 l 74.08,171.44 c -186.91,80.88 -355.44,196.25 -497.4,338.21"
     style="fill:#000000;fill-opacity:1;fill-rule:nonzero;stroke:none"
     id="path34" /><path
     d="m 6642.95,3290.02 -171.44,74.08 c -80.89,-186.91 -196.25,-355.44 -338.21,-497.4 l 132.04,-132.04 c 158.5,158.51 287.3,346.66 377.61,555.36"
     style="fill:#000000;fill-opacity:1;fill-rule:nonzero;stroke:none"
     id="path36" /><path
     d="m 6471.51,3364.1 171.44,-74.08 c 94.19,217.68 146.5,457.7 146.5,709.98 h -186.72 c 0,-225.95 -46.85,-440.93 -131.22,-635.9"
     style="fill:#000000;fill-opacity:1;fill-rule:nonzero;stroke:none"
     id="path38" /><path
     d="m 5590.9,2509.76 68.84,-173.62 c 228.81,90.8 434.46,227.39 605.6,398.52 L 6133.3,2866.7 c -153.28,-153.28 -337.47,-275.61 -542.4,-356.94"
     style="fill:#000000;fill-opacity:1;fill-rule:nonzero;stroke:none"
     id="path40" /><path
     d="m 5000,2397.27 v -186.72 c 233,0 455.59,44.57 659.74,125.59 l -68.84,173.62 C 5408.05,2437.19 5208.69,2397.27 5000,2397.27"
     style="fill:#000000;fill-opacity:1;fill-rule:nonzero;stroke:none"
     id="path42" /><path
     d="m 4364.1,2528.49 -74.08,-171.44 c 217.68,-94.19 457.7,-146.5 709.98,-146.5 v 186.72 c -225.95,0 -440.93,46.85 -635.9,131.22"
     style="fill:#000000;fill-opacity:1;fill-rule:nonzero;stroke:none"
     id="path44" /><path
     d="M 5849.65,4000 H 5692.44"
     style="fill:#000000;fill-opacity:1;fill-rule:nonzero;stroke:none"
     id="path86"
     sodipodi:nodetypes="cc" /></g></svg>
