<?xml version="1.0" encoding="UTF-8" standalone="no"?>
<!-- Generator: Adobe Illustrator 19.0.0, SVG Export Plug-In . SVG Version: 6.00 Build 0)  -->

<svg
   version="1.1"
   id="Capa_1"
   x="0px"
   y="0px"
   viewBox="0 0 512.195 512.195"
   style="enable-background:new 0 0 512.195 512.195;"
   xml:space="preserve"
   sodipodi:docname="colorfule-circle.svg"
   inkscape:version="1.1 (c68e22c387, 2021-05-23)"
   xmlns:inkscape="http://www.inkscape.org/namespaces/inkscape"
   xmlns:sodipodi="http://sodipodi.sourceforge.net/DTD/sodipodi-0.dtd"
   xmlns="http://www.w3.org/2000/svg"
   xmlns:svg="http://www.w3.org/2000/svg"><defs
   id="defs1022" /><sodipodi:namedview
   id="namedview1020"
   pagecolor="#ffffff"
   bordercolor="#666666"
   borderopacity="1.0"
   inkscape:pageshadow="2"
   inkscape:pageopacity="0.0"
   inkscape:pagecheckerboard="0"
   showgrid="false"
   inkscape:zoom="1.148611"
   inkscape:cx="256.39663"
   inkscape:cy="255.52601"
   inkscape:window-width="1920"
   inkscape:window-height="1017"
   inkscape:window-x="-8"
   inkscape:window-y="-8"
   inkscape:window-maximized="1"
   inkscape:current-layer="Capa_1" />
<g
   id="g987">
	<g
   id="g985">
		<g
   id="g983">
			<path
   d="M46.615,402.03c6.549,9.313,13.718,18.176,21.456,26.528l23.472-21.728c-6.767-7.3-13.038-15.045-18.768-23.184     L46.615,402.03z"
   id="path975"
   style="fill:#ff6600" />
			<path
   d="M32.007,254.83c0.178-112.07,83.047-206.811,194.096-221.904l-4.192-31.728C81.787,20.041-16.53,148.91,2.314,289.033     c3.942,29.31,12.932,57.716,26.573,83.957l28.368-14.784C40.563,326.311,31.897,290.828,32.007,254.83z"
   id="path977"
   style="fill:#3f2a14;fill-opacity:1" />
			<path
   d="M92.807,452.03c8.765,7.252,17.995,13.923,27.632,19.968l16.976-27.2c-8.448-5.292-16.535-11.139-24.208-17.504     L92.807,452.03z"
   id="path979"
   style="fill:#3f2a14;fill-opacity:1" />
			<path
   d="M361.761,21.742c-22.756-10.308-46.898-17.229-71.658-20.544l-4.192,31.728     c122.555,16.88,208.221,129.915,191.341,252.469C462.017,396.001,367.656,478.501,256.007,478.83     c-31.831,0.078-63.306-6.694-92.288-19.856l-13.216,29.152c128.788,58.337,280.484,1.225,338.821-127.563     C547.661,231.775,490.549,80.079,361.761,21.742z"
   id="path981"
   style="fill:#ff6600" />
		</g>
	</g>
</g>
<g
   id="g989">
</g>
<g
   id="g991">
</g>
<g
   id="g993">
</g>
<g
   id="g995">
</g>
<g
   id="g997">
</g>
<g
   id="g999">
</g>
<g
   id="g1001">
</g>
<g
   id="g1003">
</g>
<g
   id="g1005">
</g>
<g
   id="g1007">
</g>
<g
   id="g1009">
</g>
<g
   id="g1011">
</g>
<g
   id="g1013">
</g>
<g
   id="g1015">
</g>
<g
   id="g1017">
</g>
</svg>
