<svg id="Capa_1" enable-background="new 0 0 512 512" height="512" viewBox="0 0 512 512" width="512" xmlns="http://www.w3.org/2000/svg"><g><path d="m184.033 200.603c-28.979 0-52.556 23.486-52.556 52.354v22.037h105.111v-22.037c.001-28.868-23.575-52.354-52.555-52.354z"/><circle cx="184.033" cy="135.001" r="35.602"/><path d="m63.429 512h385.143v-512h-385.143zm237.55-442.428h111.323v30h-111.323zm0 67.505h111.323v30h-111.323zm0 67.505h111.323v30h-111.323zm0 67.506h111.323v30h-111.323zm-199.501-19.131c0-29.203 15.33-54.886 38.37-69.512-13.151-12.005-21.416-29.277-21.416-48.444 0-36.173 29.429-65.602 65.602-65.602s65.602 29.429 65.602 65.602c0 19.167-8.265 36.439-21.416 48.444 23.04 14.626 38.37 40.309 38.37 69.512v52.037h-165.112zm-1.781 91.966h312.605v30h-312.605zm0 67.505h312.605v30h-312.605z"/></g></svg>