<?xml version="1.0" encoding="UTF-8"?>
<!DOCTYPE svg PUBLIC "-//W3C//DTD SVG 1.1//EN" "http://www.w3.org/Graphics/SVG/1.1/DTD/svg11.dtd">
<svg version="1.1" xmlns="http://www.w3.org/2000/svg" xmlns:xlink="http://www.w3.org/1999/xlink" x="0" y="0" width="120.076" height="191.022" viewBox="0, 0, 120.076, 191.022">
  <g id="layer1">
    <path d="M70.805,72.532 L70.805,68.063 C70.805,67.312 71.355,66.69 72.084,66.617 C72.602,66.565 73.091,66.54 73.547,66.54 C75.061,66.54 76.198,66.821 76.757,67.353 C76.985,67.569 77.282,67.971 77.234,68.962 C77.156,70.597 74.419,71.786 70.805,72.532 M92.493,102.823 C91.706,103.421 91.243,104.353 91.243,105.343 L91.243,114.537 C91.243,120.645 86.274,125.614 80.166,125.614 L70.805,125.614 L70.805,76.44 C75.91,75.474 80.834,73.429 81.039,69.144 C81.151,66.79 80.198,65.368 79.379,64.591 C77.781,63.073 75.201,62.482 71.707,62.827 C69.022,63.095 66.997,65.346 66.997,68.063 L66.997,73.126 C64.665,73.391 62.239,73.504 60.067,73.468 C60.053,73.468 60.039,73.467 60.026,73.468 C60.02,73.467 60.014,73.468 60.008,73.468 C57.836,73.503 55.41,73.39 53.078,73.126 L53.078,68.063 C53.078,65.346 51.053,63.095 48.368,62.827 C44.875,62.479 42.294,63.073 40.696,64.591 C39.877,65.368 38.924,66.79 39.036,69.144 C39.24,73.429 44.164,75.474 49.27,76.44 L49.27,125.614 L39.909,125.614 C33.801,125.614 28.832,120.645 28.832,114.537 L28.832,105.343 C28.832,104.353 28.37,103.421 27.581,102.823 C14.076,92.56 6.33,76.966 6.33,60.037 C6.33,30.423 30.423,6.33 60.038,6.33 C89.652,6.33 113.746,30.423 113.746,60.037 C113.746,76.966 106,92.56 92.493,102.823 M66.997,125.614 L53.078,125.614 L53.078,76.982 C56.135,77.292 58.816,77.296 60.035,77.277 C61.253,77.297 63.936,77.293 66.997,76.982 z M49.27,72.532 C45.657,71.785 42.918,70.597 42.841,68.962 C42.794,67.971 43.09,67.569 43.319,67.353 C43.878,66.821 45.014,66.54 46.529,66.54 C46.984,66.54 47.473,66.565 47.99,66.617 C48.72,66.69 49.27,67.312 49.27,68.063 z M81.929,131.944 C83.819,131.944 85.357,133.482 85.357,135.373 C85.357,137.263 83.819,138.801 81.929,138.801 L38.147,138.801 C36.257,138.801 34.718,137.263 34.718,135.373 C34.718,133.482 36.257,131.944 38.147,131.944 L39.909,131.944 L80.166,131.944 z M78.269,165.175 L69.17,165.175 L50.906,165.175 L41.807,165.175 C39.916,165.175 38.378,163.637 38.378,161.746 C38.378,159.856 39.916,158.318 41.807,158.318 L78.269,158.318 C80.16,158.318 81.698,159.856 81.698,161.746 C81.698,163.637 80.16,165.175 78.269,165.175 M60.038,184.692 C47.477,184.692 47.477,178.101 47.477,174.934 C47.477,173.043 49.015,171.505 50.906,171.505 L69.17,171.505 C71.06,171.505 72.599,173.043 72.599,174.934 C72.599,178.583 72.599,184.692 60.038,184.692 M85.357,148.559 C85.357,150.45 83.819,151.988 81.929,151.988 L78.269,151.988 L41.807,151.988 L38.147,151.988 C36.257,151.988 34.718,150.45 34.718,148.559 C34.718,146.668 36.257,145.131 38.147,145.131 L81.929,145.131 C83.819,145.131 85.357,146.668 85.357,148.559 M60.038,-0 C26.933,-0 0,26.933 0,60.037 C0,78.433 8.181,95.418 22.502,106.887 L22.502,114.537 C22.502,120.704 25.729,126.129 30.581,129.221 C29.212,130.901 28.388,133.042 28.388,135.373 C28.388,137.916 29.375,140.227 30.974,141.966 C29.375,143.704 28.388,146.016 28.388,148.559 C28.388,152.168 30.363,155.319 33.284,157.007 C32.499,158.412 32.048,160.027 32.048,161.746 C32.048,167.119 36.413,171.49 41.782,171.503 C41.378,172.573 41.147,173.725 41.147,174.934 C41.147,188.231 51.42,191.022 60.038,191.022 C72.573,191.022 78.928,185.609 78.928,174.934 C78.928,173.725 78.697,172.573 78.294,171.503 C83.663,171.49 88.027,167.119 88.027,161.746 C88.027,160.027 87.576,158.412 86.792,157.007 C89.712,155.319 91.687,152.168 91.687,148.559 C91.687,146.016 90.701,143.704 89.102,141.966 C90.701,140.227 91.687,137.916 91.687,135.373 C91.687,133.042 90.863,130.901 89.494,129.221 C94.346,126.128 97.573,120.704 97.573,114.537 L97.573,106.887 C111.895,95.418 120.076,78.433 120.076,60.037 C120.076,26.933 93.143,-0 60.038,-0" fill="#000000" id="path874"/>
  </g>
</svg>
