<?xml version="1.0" encoding="UTF-8" standalone="no"?>
<svg id="svg5232" xmlns:rdf="http://www.w3.org/1999/02/22-rdf-syntax-ns#" xmlns="http://www.w3.org/2000/svg" height="487.98mm" width="487.98mm" version="1.1" xmlns:cc="http://creativecommons.org/ns#" xmlns:xlink="http://www.w3.org/1999/xlink" viewBox="0 0 1729.0594 1729.0595" xmlns:dc="http://purl.org/dc/elements/1.1/">
<defs id="defs5234">
<linearGradient id="linearGradient7029" y2="-56.578" gradientUnits="userSpaceOnUse" x2="-1311.4" gradientTransform="matrix(10.1 0 0 10.1 13622 282.73)" y1="-45.815" x1="-1351.6">
<stop id="stop5058" stop-color="#ff0179" offset="0"/>
<stop id="stop5060" stop-color="#f00" offset="1"/>
</linearGradient>
<linearGradient id="linearGradient7031" y2="-45.815" gradientUnits="userSpaceOnUse" x2="-1351.6" gradientTransform="matrix(10.1 0 0 10.1 13625 280.68)" y1="-16.631" x1="-1381.4">
<stop id="stop5066" stop-color="#ff00fc" offset="0"/>
<stop id="stop5068" stop-color="#ff0078" offset="1"/>
</linearGradient>
<linearGradient id="linearGradient7033" y2="-16.631" gradientUnits="userSpaceOnUse" x2="-1381.4" gradientTransform="matrix(10.1 0 0 10.1 13628 277.09)" y1="23.791" x1="-1391.8">
<stop id="stop5074" stop-color="#8400ff" offset="0"/>
<stop id="stop5076" stop-color="#ff00fc" offset="1"/>
</linearGradient>
<linearGradient id="linearGradient7035" y2="63.978" gradientUnits="userSpaceOnUse" x2="-1381" gradientTransform="matrix(10.1 0 0 10.1 13628 272.77)" y1="23.791" x1="-1391.8">
<stop id="stop5082" stop-color="#8400ff" offset="0"/>
<stop id="stop5084" stop-color="#0600ff" offset="1"/>
</linearGradient>
<linearGradient id="linearGradient7037" y2="93.396" gradientUnits="userSpaceOnUse" x2="-1351.6" gradientTransform="matrix(10.1 0 0 10.1 13625 269.18)" y1="63.978" x1="-1381">
<stop id="stop5090" stop-color="#0600ff" offset="0"/>
<stop id="stop5092" stop-color="#007eff" offset="1"/>
</linearGradient>
<linearGradient id="linearGradient7039" y2="104.16" gradientUnits="userSpaceOnUse" x2="-1311.4" gradientTransform="matrix(10.1 0 0 10.1 13622 267.13)" y1="93.396" x1="-1351.6">
<stop id="stop5098" stop-color="#007eff" offset="0"/>
<stop id="stop5100" stop-color="#00fcff" offset="1"/>
</linearGradient>
<linearGradient id="linearGradient7041" y2="93.396" gradientUnits="userSpaceOnUse" x2="-1271.2" gradientTransform="matrix(10.1 0 0 10.1 13618 267.13)" y1="104.16" x1="-1311.4">
<stop id="stop5106" stop-color="#00fcff" offset="0"/>
<stop id="stop5108" stop-color="#00ff84" offset="1"/>
</linearGradient>
<linearGradient id="linearGradient7043" y2="63.978" gradientUnits="userSpaceOnUse" x2="-1241.8" gradientTransform="matrix(10.1 0 0 10.1 13614 269.18)" y1="93.396" x1="-1271.2">
<stop id="stop5114" stop-color="#00ff84" offset="0"/>
<stop id="stop5116" stop-color="#0f0" offset="1"/>
</linearGradient>
<linearGradient id="linearGradient7045" y2="23.791" gradientUnits="userSpaceOnUse" x2="-1231.1" gradientTransform="matrix(10.1 0 0 10.1 13612 272.77)" y1="63.978" x1="-1241.8">
<stop id="stop5122" stop-color="#0f0" offset="0"/>
<stop id="stop5124" stop-color="#7eff00" offset="1"/>
</linearGradient>
<linearGradient id="linearGradient7047" y2="23.791" gradientUnits="userSpaceOnUse" x2="-1231.1" gradientTransform="matrix(10.1 0 0 10.1 13612 277.09)" y1="-16.397" x1="-1241.8">
<stop id="stop5130" stop-color="#fcff00" offset="0"/>
<stop id="stop5132" stop-color="#7eff00" offset="1"/>
</linearGradient>
<linearGradient id="linearGradient7049" y2="-16.397" gradientUnits="userSpaceOnUse" x2="-1241.8" gradientTransform="matrix(10.1 0 0 10.1 13614 280.68)" y1="-45.815" x1="-1271.2">
<stop id="stop5138" stop-color="#ff7e00" offset="0"/>
<stop id="stop5140" stop-color="#fcff00" offset="1"/>
</linearGradient>
<linearGradient id="linearGradient7051" y2="-45.815" gradientUnits="userSpaceOnUse" x2="-1271.2" gradientTransform="matrix(10.1 0 0 10.1 13618 282.73)" y1="-56.578" x1="-1311.4">
<stop id="stop5146" stop-color="#f00" offset="0"/>
<stop id="stop5148" stop-color="#ff7e00" offset="1"/>
</linearGradient>
</defs>
<g id="layer1" transform="translate(490.24 349.31)">
<g id="g7208" fill-rule="evenodd">
<path id="path4305" d="m376.45-349.31c-158.84 0-307.81 42.58-436.15 116.9l30.261 52.413c119.4-69.026 257.92-108.71 405.89-108.71v-60.6z" fill="url(#linearGradient7029)"/>
<path id="path4311" d="m-56.119-234.46c-132.3 76.61-242.66 186.97-319.27 319.27l52.414 30.261c71.245-123.23 173.89-225.88 297.12-297.12l-30.261-52.413z" fill="url(#linearGradient7031)"/>
<path id="path4313" d="m-373.34 81.224c-74.32 128.34-116.9 277.32-116.9 436.15h60.601c0-147.97 39.685-286.5 108.71-405.89l-52.414-30.261z" fill="url(#linearGradient7033)"/>
<path id="path4315" d="m-490.24 513.06c0 158.84 42.58 307.81 116.9 436.15l52.414-30.26c-69.03-119.39-108.71-257.92-108.71-405.89h-60.601z" fill="url(#linearGradient7035)"/>
<path id="path4317" d="m-322.98 915.36-52.414 30.26c76.614 132.3 186.97 242.66 319.28 319.27l30.261-52.413c-123.24-71.3-225.89-173.9-297.13-297.14z" fill="url(#linearGradient7037)"/>
<path id="path4319" d="m-29.449 1210.4-30.261 52.413c128.34 74.321 277.32 116.9 436.15 116.9v-60.6c-147.97 0-286.5-39.686-405.89-108.71z" fill="url(#linearGradient7039)"/>
<path id="path4321" d="m778.02 1210.4c-119.4 69.027-257.92 108.71-405.89 108.71v60.6c158.84 0 307.81-42.579 436.15-116.9l-30.261-52.413z" fill="url(#linearGradient7041)"/>
<path id="path4323" d="m1071.6 915.36c-71.3 123.24-173.94 225.84-297.17 297.14l30.261 52.413c132.3-76.612 242.66-186.97 319.27-319.27l-52.413-30.26z" fill="url(#linearGradient7043)"/>
<path id="path4325" d="m1178.2 513.06c0 147.97-39.686 286.5-108.71 405.89l52.413 30.26c74.321-128.34 116.9-277.32 116.9-436.15h-60.601z" fill="url(#linearGradient7045)"/>
<path id="path4327" d="m1121.9 81.224-52.413 30.261c69.025 119.39 108.71 257.92 108.71 405.89h60.601c0-158.84-42.579-307.81-116.9-436.15z" fill="url(#linearGradient7047)"/>
<path id="path4329" d="m804.69-234.46-30.261 52.413c123.23 71.243 225.88 173.89 297.12 297.12l52.413-30.261c-76.6-132.3-187.01-242.66-319.31-319.27z" fill="url(#linearGradient7049)"/>
<path id="path4331" d="m372.13-349.31v60.6c147.97 0 286.5 39.687 405.89 108.71l30.261-52.413c-128.34-74.32-277.32-116.9-436.15-116.9z" fill="url(#linearGradient7051)"/>
</g>
</g>
</svg>
